<svg id="Layer_1" data-name="Layer 1" xmlns="http://www.w3.org/2000/svg" xmlns:xlink="http://www.w3.org/1999/xlink" viewBox="0 0 58 56"><defs><style>.cls-1{fill:none;}.cls-2{fill:#00635a;}.cls-3{fill:url(#linear-gradient);}.cls-4{fill:url(#New_Pattern_Swatch_1);}.cls-5{fill:#fff;fill-rule:evenodd;}</style><linearGradient id="linear-gradient" x1="119.04" y1="28" x2="173.04" y2="28" gradientTransform="matrix(-1, 0, 0, 1, 175.04, 0)" gradientUnits="userSpaceOnUse"><stop offset="0" stop-color="#f1f2f2"/><stop offset="1" stop-color="#e6e7e8"/></linearGradient><pattern id="New_Pattern_Swatch_1" data-name="New Pattern Swatch 1" width="28.8" height="34.56" patternTransform="translate(0 -12.4)" patternUnits="userSpaceOnUse" viewBox="0 0 28.8 34.56"><rect class="cls-1" width="28.8" height="34.56"/><rect class="cls-2" width="28.8" height="34.56"/></pattern></defs><title>aerendir icons</title><circle class="cls-3" cx="29" cy="28" r="27"/><circle class="cls-4" cx="29.56" cy="27.84" r="19.54"/><path class="cls-5" d="M31.08,15.18a19.94,19.94,0,0,1,5.3,5.71,55.34,55.34,0,0,1-5.84,4.28,2.09,2.09,0,0,1-.94,1.74,2,2,0,0,1-1.94,0,45.19,45.19,0,0,1-6.75,3,20.2,20.2,0,0,1-2.3-7.49,25.58,25.58,0,0,1,5.25-4.15l1.24,2.15a1.66,1.66,0,0,1,.49-.42,1.71,1.71,0,0,1,.67-.22L25,17.58a29.49,29.49,0,0,1,6.08-2.4Zm-4.92,5.76c-.79.46-.78,1.94,0,3.32s2.08,2.12,2.86,1.67.78-1.94,0-3.32-2.08-2.12-2.86-1.67Zm11.1,1.45a55.69,55.69,0,0,1-7.16,5.07,47.63,47.63,0,0,1-8.34,3.93C25.19,37,30.3,43.11,36.64,39.31S40.43,28.2,37.26,22.39Z"/></svg>