<svg id="Layer_1" data-name="Layer 1" xmlns="http://www.w3.org/2000/svg" xmlns:xlink="http://www.w3.org/1999/xlink" viewBox="0 0 58 56"><defs><style>.cls-1{fill:none;}.cls-2{fill:#00635a;}.cls-3{fill:url(#linear-gradient);}.cls-4{fill:url(#New_Pattern_Swatch_1);}.cls-5{fill:#fff;}</style><linearGradient id="linear-gradient" x1="2" y1="28" x2="56" y2="28" gradientUnits="userSpaceOnUse"><stop offset="0" stop-color="#f1f2f2"/><stop offset="1" stop-color="#e6e7e8"/></linearGradient><pattern id="New_Pattern_Swatch_1" data-name="New Pattern Swatch 1" width="28.8" height="34.56" patternTransform="translate(0 -12.4)" patternUnits="userSpaceOnUse" viewBox="0 0 28.8 34.56"><rect class="cls-1" width="28.8" height="34.56"/><rect class="cls-2" width="28.8" height="34.56"/></pattern></defs><title>aerendir icons</title><circle class="cls-3" cx="29" cy="28" r="27"/><circle class="cls-4" cx="29.56" cy="27.84" r="19.54"/><path class="cls-5" d="M31.42,26.38a.72.72,0,0,0,0-1,.71.71,0,0,0-1,0,.74.74,0,0,0,0,1A.71.71,0,0,0,31.42,26.38Z"/><path class="cls-5" d="M31.42,29.51a.72.72,0,0,0,0-1,.71.71,0,0,0-1,0,.74.74,0,0,0,0,1A.71.71,0,0,0,31.42,29.51Z"/><path class="cls-5" d="M29.35,19.45a8,8,0,0,1,8,7.84h1.8a9.8,9.8,0,0,0-19.6,0h1.81A8,8,0,0,1,29.35,19.45Z"/><path class="cls-5" d="M30.2,23.48V19.64a8.95,8.95,0,0,0-1.69,0v3.84a4.69,4.69,0,0,1,.84-.08A4.8,4.8,0,0,1,30.2,23.48Z"/><path class="cls-5" d="M25.45,27.45a3.9,3.9,0,1,0,3.9-3.9A3.9,3.9,0,0,0,25.45,27.45Zm4.83-2.11a.89.89,0,0,1,1.28,0,.91.91,0,1,1-1.28,1.28A.89.89,0,0,1,30.28,25.34Zm0,3.13a.91.91,0,1,1,0,1.28A.89.89,0,0,1,30.28,28.47Zm-.93-1.42a.4.4,0,1,1-.4.4A.4.4,0,0,1,29.35,27.05Zm-2.2-1.71a.89.89,0,0,1,1.28,0,.91.91,0,0,1-1.28,1.28A.89.89,0,0,1,27.15,25.34Zm0,3.13a.91.91,0,1,1,0,1.28A.89.89,0,0,1,27.15,28.47Z"/><path class="cls-5" d="M28.29,26.38a.72.72,0,0,0,0-1,.71.71,0,0,0-1,0,.72.72,0,0,0,0,1A.71.71,0,0,0,28.29,26.38Z"/><path class="cls-5" d="M37.09,27.45a7.54,7.54,0,0,1-.66,3.11l-3.22-1.87a4,4,0,0,1-.85,1.46L35.59,32a7.74,7.74,0,0,1-12.48,0l3.23-1.87a4.08,4.08,0,0,1-.84-1.46l-3.23,1.87a7.7,7.7,0,0,1-.65-3.11H19.29a10.06,10.06,0,1,0,20.12,0Z"/><path class="cls-5" d="M28.29,29.51a.72.72,0,0,0,0-1,.71.71,0,0,0-1,0,.72.72,0,0,0,0,1A.71.71,0,0,0,28.29,29.51Z"/></svg>