<svg id="Layer_1" data-name="Layer 1" xmlns="http://www.w3.org/2000/svg" xmlns:xlink="http://www.w3.org/1999/xlink" viewBox="0 0 58 56"><defs><style>.cls-1{fill:none;}.cls-2{fill:#16abe2;}.cls-3{fill:url(#linear-gradient);}.cls-4{fill:url(#New_Pattern_Swatch_2);}.cls-5{fill:#fff;}</style><linearGradient id="linear-gradient" x1="2" y1="28" x2="56" y2="28" gradientUnits="userSpaceOnUse"><stop offset="0" stop-color="#f1f2f2"/><stop offset="1" stop-color="#e6e7e8"/></linearGradient><pattern id="New_Pattern_Swatch_2" data-name="New Pattern Swatch 2" width="28.8" height="34.56" patternTransform="translate(0 -12.4)" patternUnits="userSpaceOnUse" viewBox="0 0 28.8 34.56"><rect class="cls-1" width="28.8" height="34.56"/><rect class="cls-2" width="28.8" height="34.56"/></pattern></defs><title>aerendir icons</title><circle class="cls-3" cx="29" cy="28" r="27"/><circle class="cls-4" cx="29" cy="28" r="19.54" transform="translate(-5.08 49.52) rotate(-76.27)"/><g id="Element"><path class="cls-5" d="M20.38,14.74V38.55l12.56,2.93V18.21l-6-1.81h7V37.89h1.67V14.74ZM30.51,29.12a1.32,1.32,0,1,1-1.31,1.32A1.32,1.32,0,0,1,30.51,29.12Z"/></g><circle class="cls-4" cx="29.56" cy="27.84" r="19.54" transform="translate(-4.49 49.95) rotate(-76.27)"/><g id="Element-2" data-name="Element"><path class="cls-5" d="M21,14.57V38.38l12.56,2.93V18.05l-6-1.81h7V37.72h1.66V14.57ZM31.08,29a1.32,1.32,0,1,1-1.32,1.31A1.31,1.31,0,0,1,31.08,29Z"/></g></svg>