<svg id="Layer_1" data-name="Layer 1" xmlns="http://www.w3.org/2000/svg" xmlns:xlink="http://www.w3.org/1999/xlink" viewBox="0 0 58 56"><defs><style>.cls-1{fill:none;}.cls-2{fill:#16a9e1;}.cls-3{fill:url(#linear-gradient);}.cls-4{fill:url(#New_Pattern_Swatch_3);}.cls-5{fill:#fff;}</style><linearGradient id="linear-gradient" x1="2" y1="28" x2="56" y2="28" gradientUnits="userSpaceOnUse"><stop offset="0" stop-color="#f1f1f1"/><stop offset="1" stop-color="#e5e6e6"/></linearGradient><pattern id="New_Pattern_Swatch_3" data-name="New Pattern Swatch 3" width="28.8" height="34.56" patternTransform="translate(-28.8 -12.4)" patternUnits="userSpaceOnUse" viewBox="0 0 28.8 34.56"><rect class="cls-1" width="28.8" height="34.56"/><rect class="cls-2" width="28.8" height="34.56"/></pattern></defs><title>aerendir icons</title><circle class="cls-3" cx="29" cy="28" r="27"/><circle class="cls-4" cx="29" cy="28" r="19.54" transform="translate(-5.08 49.52) rotate(-76.27)"/><rect class="cls-5" x="18.82" y="25.45" width="2.77" height="6.37" rx="0.32" ry="0.32"/><polygon class="cls-5" points="19.57 25.18 22.16 25.18 22.16 23.78 19.57 24.48 19.57 25.18"/><rect class="cls-5" x="25.33" y="35.64" width="2.13" height="0.77"/><polygon class="cls-5" points="19.57 32.8 22.16 33.51 22.16 32.1 19.57 32.1 19.57 32.8"/><rect class="cls-5" x="30.85" y="35.64" width="2.13" height="0.77"/><rect class="cls-5" x="30.85" y="20.87" width="2.13" height="0.77"/><polygon class="cls-5" points="38.74 24.48 36.15 23.78 36.15 25.18 38.74 25.18 38.74 24.48"/><rect class="cls-5" x="25.33" y="20.87" width="2.13" height="0.77"/><rect class="cls-5" x="15.78" y="25.45" width="2.77" height="6.37" rx="0.32" ry="0.32"/><rect class="cls-5" x="12.75" y="25.45" width="2.77" height="6.37" rx="0.32" ry="0.32"/><rect class="cls-5" x="36.72" y="25.45" width="2.77" height="6.37" rx="0.32" ry="0.32"/><polygon class="cls-5" points="36.15 33.51 38.74 32.8 38.74 32.1 36.15 32.1 36.15 33.51"/><path class="cls-5" d="M45.25,25.45H43.12a.33.33,0,0,0-.32.32v5.74a.33.33,0,0,0,.32.32h2.13a.32.32,0,0,0,.32-.32V25.77A.32.32,0,0,0,45.25,25.45Z"/><path class="cls-5" d="M42.21,25.45H40.08a.32.32,0,0,0-.32.32v5.74a.32.32,0,0,0,.32.32h2.13a.33.33,0,0,0,.34-.32V25.77A.33.33,0,0,0,42.21,25.45Z"/><rect class="cls-5" x="24.5" y="23.82" width="9.32" height="9.32"/><path class="cls-5" d="M34.23,21.92H24.09a1.63,1.63,0,0,0-1.66,1.65V33.71a1.66,1.66,0,0,0,1.66,1.66H34.23a1.65,1.65,0,0,0,1.65-1.66V23.57A1.63,1.63,0,0,0,34.23,21.92Zm1,11.79a1,1,0,0,1-1,1H24.09a1,1,0,0,1-1-1V23.57a1,1,0,0,1,1-1H34.23a1,1,0,0,1,1,1Z"/></svg>