<svg id="Layer_1" data-name="Layer 1" xmlns="http://www.w3.org/2000/svg" xmlns:xlink="http://www.w3.org/1999/xlink" viewBox="0 0 58 56"><defs><style>.cls-1{fill:none;}.cls-2{fill:#fac114;}.cls-3{fill:url(#linear-gradient);}.cls-4{fill:url(#New_Pattern_Swatch_4);}.cls-5{fill:#fff;}</style><linearGradient id="linear-gradient" x1="-36.96" y1="28" x2="17.04" y2="28" gradientTransform="matrix(-0.97, -0.23, -0.23, 0.97, 25.6, -1.52)" gradientUnits="userSpaceOnUse"><stop offset="0" stop-color="#f1f2f2"/><stop offset="1" stop-color="#e6e7e8"/></linearGradient><pattern id="New_Pattern_Swatch_4" data-name="New Pattern Swatch 4" width="28.8" height="34.56" patternTransform="translate(0 -12.4)" patternUnits="userSpaceOnUse" viewBox="0 0 28.8 34.56"><rect class="cls-1" width="28.8" height="34.56"/><rect class="cls-2" width="28.8" height="34.56"/></pattern></defs><title>aerendir icons</title><circle class="cls-3" cx="29" cy="28" r="27" transform="translate(-5.56 7.25) rotate(-13.01)"/><circle class="cls-4" cx="29.56" cy="27.84" r="19.54" transform="translate(-5.76 7.81) rotate(-13.73)"/><path class="cls-5" d="M35.27,13.87H23.86a2.17,2.17,0,0,0-2,2.29V39.48a2.2,2.2,0,0,0,2,2.32H35.27a2.2,2.2,0,0,0,2-2.32V16.16A2.17,2.17,0,0,0,35.27,13.87Zm-5.72,1.24a.67.67,0,0,1,0,1.34.67.67,0,0,1,0-1.34ZM27.91,39.93H25.78a.61.61,0,0,1-.56-.63.65.65,0,0,1,.56-.69h2.13Zm2.87,0H28.35V38.61h2.43Zm2.55,0H31.22V38.61h2.11a.65.65,0,0,1,.58.69A.61.61,0,0,1,33.33,39.93ZM36,36.82H23.14v-18H36Z"/></svg>