<svg id="Layer_1" data-name="Layer 1" xmlns="http://www.w3.org/2000/svg" xmlns:xlink="http://www.w3.org/1999/xlink" viewBox="0 0 58 56"><defs><style>.cls-1{fill:none;}.cls-2{fill:#fac114;}.cls-3{fill:url(#linear-gradient);}.cls-4{fill:url(#New_Pattern_Swatch_4);}.cls-5{fill:#fff;}</style><linearGradient id="linear-gradient" x1="2" y1="28" x2="56" y2="28" gradientTransform="translate(49.75 -6.56) rotate(76.99)" gradientUnits="userSpaceOnUse"><stop offset="0" stop-color="#f1f2f2"/><stop offset="1" stop-color="#e6e7e8"/></linearGradient><pattern id="New_Pattern_Swatch_4" data-name="New Pattern Swatch 4" width="28.8" height="34.56" patternTransform="translate(0 -12.4)" patternUnits="userSpaceOnUse" viewBox="0 0 28.8 34.56"><rect class="cls-1" width="28.8" height="34.56"/><rect class="cls-2" width="28.8" height="34.56"/></pattern></defs><title>aerendir icons</title><circle class="cls-3" cx="29" cy="28" r="27" transform="translate(-4.81 49.95) rotate(-76.99)"/><circle class="cls-4" cx="29" cy="28" r="19.54" transform="translate(-5.08 49.52) rotate(-76.27)"/><path class="cls-5" d="M43,18.81H23.09a1.51,1.51,0,0,0-1.51,1.52v1.46H35A2,2,0,0,1,36.76,23h7.3V25.6H36.89v8.21H43a1.55,1.55,0,0,0,1.52-1.55V20.33A1.54,1.54,0,0,0,43,18.81ZM41.39,29H37.61V27.2h3.78Z"/><path class="cls-5" d="M35,22.22H15.05a1.52,1.52,0,0,0-1.52,1.49v12a1.54,1.54,0,0,0,1.52,1.52H35a1.53,1.53,0,0,0,1.52-1.52v-12A1.51,1.51,0,0,0,35,22.22ZM18.49,25.39h1.33a1,1,0,0,1,1,1v.34H18.49Zm-2.32,1a1,1,0,0,1,1-1H18v1.3H16.17Zm0,.88h4.61v.05a1,1,0,0,1-1,1H17.13a1,1,0,0,1-1-1ZM35,32.47a.5.5,0,0,1-.51.48H15.58a.48.48,0,0,1-.48-.48v-1a.48.48,0,0,1,.48-.48H34.44a.5.5,0,0,1,.51.48Z"/></svg>