<svg id="Layer_1" data-name="Layer 1" xmlns="http://www.w3.org/2000/svg" xmlns:xlink="http://www.w3.org/1999/xlink" viewBox="0 0 58 56"><defs><style>.cls-1{fill:none;}.cls-2{fill:#16abe2;}.cls-3{fill:url(#linear-gradient);}.cls-4{fill:url(#New_Pattern_Swatch_2);}.cls-5{fill:#fff;fill-rule:evenodd;}</style><linearGradient id="linear-gradient" x1="119.04" y1="28" x2="173.04" y2="28" gradientTransform="matrix(-1, 0, 0, 1, 175.04, 0)" gradientUnits="userSpaceOnUse"><stop offset="0" stop-color="#f1f2f2"/><stop offset="1" stop-color="#e6e7e8"/></linearGradient><pattern id="New_Pattern_Swatch_2" data-name="New Pattern Swatch 2" width="28.8" height="34.56" patternTransform="translate(0 -12.4)" patternUnits="userSpaceOnUse" viewBox="0 0 28.8 34.56"><rect class="cls-1" width="28.8" height="34.56"/><rect class="cls-2" width="28.8" height="34.56"/></pattern></defs><title>aerendir icons</title><circle class="cls-3" cx="29" cy="28" r="27"/><circle class="cls-4" cx="29.56" cy="27.84" r="19.54" transform="translate(-5.76 7.81) rotate(-13.73)"/><path class="cls-5" d="M16.75,21.26H42.38a2.32,2.32,0,0,1,2.31,2.32v10a2.33,2.33,0,0,1-2.31,2.32H16.75a2.33,2.33,0,0,1-2.31-2.32v-10a2.32,2.32,0,0,1,2.31-2.32Zm17.53-2.58a2.82,2.82,0,0,1,.32-1.35,1.45,1.45,0,0,1,1.22-.7,3.73,3.73,0,0,1,1.26.21c.43.14.91.33,1.39.53a16.45,16.45,0,0,0,1.69.62,3,3,0,0,0,1.82.09h0a2.14,2.14,0,0,0,1.2-1.57l.07-.25.24.07.47.14.25.07-.07.24A3.09,3.09,0,0,1,42.38,19,4,4,0,0,1,39.89,19c-.31-.09-.61-.19-.91-.31s-.58-.23-.88-.35h0a6.44,6.44,0,0,0-2.22-.66.5.5,0,0,0-.45.3,1.76,1.76,0,0,0-.15.75h.26l.31,1.63H33.71L34,18.68ZM23.91,31.76a.51.51,0,0,0-.51.51v.81a.51.51,0,0,0,.51.51H38.45a.51.51,0,0,0,.51-.51v-.81a.51.51,0,0,0-.51-.51Zm13.4-7.65a.38.38,0,0,0-.38.38v1.07a.38.38,0,0,0,.38.38H38.9a.38.38,0,0,0,.37-.38V24.49a.38.38,0,0,0-.37-.38Zm-3,0a.38.38,0,0,0-.38.38v1.07a.38.38,0,0,0,.38.38h1.59a.38.38,0,0,0,.38-.38V24.49a.38.38,0,0,0-.38-.38Zm-3,0a.38.38,0,0,0-.38.38v1.07a.38.38,0,0,0,.38.38h1.59a.38.38,0,0,0,.37-.38V24.49a.38.38,0,0,0-.37-.38Zm-2.91,0a.38.38,0,0,0-.38.38v1.07a.38.38,0,0,0,.38.38H30a.38.38,0,0,0,.38-.38V24.49a.38.38,0,0,0-.38-.38Zm-2.85,0a.38.38,0,0,0-.38.38v1.07a.38.38,0,0,0,.38.38h1.58a.38.38,0,0,0,.38-.38V24.49a.38.38,0,0,0-.38-.38Zm-2.94,0a.38.38,0,0,0-.38.38v1.07a.38.38,0,0,0,.38.38h1.59a.38.38,0,0,0,.38-.38V24.49a.38.38,0,0,0-.38-.38Zm-5.09,0a.38.38,0,0,0-.38.38v1.07a.38.38,0,0,0,.38.38h3.82a.38.38,0,0,0,.38-.38V24.49a.38.38,0,0,0-.38-.38Zm20.52,2.57a.37.37,0,0,0-.37.38v1.07a.37.37,0,0,0,.37.38h3.62l0,0h.15v-3.7a.38.38,0,0,0-.38-.38H40.4a.38.38,0,0,0-.37.38v2.25Zm-3.07,0a.38.38,0,0,0-.38.38v1.07a.38.38,0,0,0,.38.38h1.59a.38.38,0,0,0,.38-.38V27.06a.38.38,0,0,0-.38-.38Zm-3,0a.38.38,0,0,0-.38.38v1.07a.38.38,0,0,0,.38.38H33.6a.38.38,0,0,0,.38-.38V27.06a.38.38,0,0,0-.38-.38Zm-3,0a.37.37,0,0,0-.37.38v1.07a.37.37,0,0,0,.37.38H30.6a.38.38,0,0,0,.38-.38V27.06a.38.38,0,0,0-.38-.38Zm-2.91,0a.38.38,0,0,0-.37.38v1.07a.38.38,0,0,0,.37.38h1.59a.38.38,0,0,0,.38-.38V27.06a.38.38,0,0,0-.38-.38Zm-2.85,0a.38.38,0,0,0-.38.38v1.07a.38.38,0,0,0,.38.38h1.59a.38.38,0,0,0,.38-.38V27.06a.38.38,0,0,0-.38-.38Zm-2.94,0a.38.38,0,0,0-.37.38v1.07a.38.38,0,0,0,.37.38H21.9a.38.38,0,0,0,.38-.38V27.06a.38.38,0,0,0-.38-.38Zm-2.85,0a.38.38,0,0,0-.38.38v1.07a.38.38,0,0,0,.38.38h1.59a.37.37,0,0,0,.37-.38V27.06a.37.37,0,0,0-.37-.38ZM40,29.13a.38.38,0,0,0-.38.38v1.08A.38.38,0,0,0,40,31h1.59a.38.38,0,0,0,.37-.37V29.51a.38.38,0,0,0-.37-.38Zm-3,0a.38.38,0,0,0-.38.38v1.08A.38.38,0,0,0,37,31H38.6a.38.38,0,0,0,.38-.37V29.51a.38.38,0,0,0-.38-.38Zm-3,0a.38.38,0,0,0-.38.38v1.08A.38.38,0,0,0,34,31H35.6a.37.37,0,0,0,.37-.37V29.51a.37.37,0,0,0-.37-.38Zm-2.91,0a.38.38,0,0,0-.38.38v1.08a.38.38,0,0,0,.38.37h1.59a.38.38,0,0,0,.38-.37V29.51a.38.38,0,0,0-.38-.38Zm-2.85,0a.38.38,0,0,0-.38.38v1.08a.38.38,0,0,0,.38.37h1.58a.38.38,0,0,0,.38-.37V29.51a.38.38,0,0,0-.38-.38Zm-2.94,0a.38.38,0,0,0-.38.38v1.08a.38.38,0,0,0,.38.37H26.9a.38.38,0,0,0,.38-.37V29.51a.38.38,0,0,0-.38-.38Zm-2.85,0a.38.38,0,0,0-.38.38v1.08a.38.38,0,0,0,.38.37H24a.38.38,0,0,0,.38-.37V29.51a.38.38,0,0,0-.38-.38Zm-5,0a.38.38,0,0,0-.38.38v1.08a.38.38,0,0,0,.38.37h3.66a.38.38,0,0,0,.38-.37V29.51a.38.38,0,0,0-.38-.38Zm0,2.63a.38.38,0,0,0-.38.37v1.08a.38.38,0,0,0,.38.38H19a.37.37,0,0,0,.37-.38V32.13a.37.37,0,0,0-.37-.37Zm22.62,0a.38.38,0,0,0-.37.37v1.08a.38.38,0,0,0,.37.38h1.59a.38.38,0,0,0,.38-.38V32.13a.38.38,0,0,0-.38-.37Zm-19.36,0a.38.38,0,0,0-.38.37v1.08a.38.38,0,0,0,.38.38h1.59a.38.38,0,0,0,.38-.38V32.13a.38.38,0,0,0-.38-.37Z"/></svg>